<svg xmlns="http://www.w3.org/2000/svg" width="25" height="25" viewBox="0 0 25 25"><path fill-rule="evenodd" d="M 12.5 0 A 12.5 12.5 0 0 0 0 12.5 A 12.5 12.5 0 0 0 12.5 25 A 12.5 12.5 0 0 0 25 12.5 A 12.5 12.5 0 0 0 12.5 0 z M 12.5 4.5 C 16.912356 4.5 20.5 8.0877 20.5 12.5 C 20.5 16.9124 16.912356 20.5 12.5 20.5 C 8.0876444 20.5 4.4999997 16.9124 4.5 12.5 C 4.4999997 8.0877 8.0876444 4.5 12.5 4.5 z M 12.5 5.5 C 12.268656 5.5 12.015348 5.6168875 11.726562 5.9296875 C 11.437776 6.2424875 11.143844 6.7405062 10.894531 7.3789062 C 10.661481 7.9758063 10.4715 8.6998 10.330078 9.5 L 14.669922 9.5 C 14.5285 8.6998 14.338519 7.9758063 14.105469 7.3789062 C 13.856156 6.7405062 13.562223 6.2424875 13.273438 5.9296875 C 12.984651 5.6168875 12.731345 5.5 12.5 5.5 z M 10.599609 5.765625 C 8.6411066 6.315825 7.0370712 7.6929 6.1796875 9.5 L 9.3066406 9.5 C 9.4591332 8.5741 9.6822359 7.734425 9.9628906 7.015625 C 10.147853 6.541925 10.360467 6.125725 10.599609 5.765625 z M 14.400391 5.765625 C 14.639532 6.125725 14.852148 6.541925 15.037109 7.015625 C 15.317764 7.734425 15.540867 8.5741 15.693359 9.5 L 18.820312 9.5 C 17.96293 7.6929 16.358893 6.315825 14.400391 5.765625 z M 5.7929688 10.5 C 5.6048478 11.1338 5.4999999 11.8044 5.5 12.5 C 5.4999999 13.1963 5.6045029 13.8657 5.7929688 14.5 L 9.1875 14.5 C 9.1202726 13.8572 9.0722656 13.1956 9.0722656 12.5 C 9.0722656 11.8044 9.120272 11.1425 9.1875 10.5 L 5.7929688 10.5 z M 10.195312 10.5 C 10.123805 11.1382 10.072266 11.8008 10.072266 12.5 C 10.072266 13.1999 10.123672 13.8609 10.195312 14.5 L 14.804688 14.5 C 14.876333 13.8609 14.927734 13.1999 14.927734 12.5 C 14.927734 11.8008 14.876197 11.1382 14.804688 10.5 L 10.195312 10.5 z M 15.8125 10.5 C 15.879724 11.1425 15.927734 11.8044 15.927734 12.5 C 15.927734 13.1956 15.87973 13.8572 15.8125 14.5 L 19.207031 14.5 C 19.395497 13.8657 19.5 13.1963 19.5 12.5 C 19.5 11.8044 19.395152 11.1338 19.207031 10.5 L 15.8125 10.5 z M 6.1816406 15.5 C 7.0390393 17.3054 8.6408282 18.682222 10.597656 19.232422 C 10.35913 18.872822 10.147472 18.459028 9.9628906 17.986328 C 9.6822359 17.267628 9.4591332 16.4264 9.3066406 15.5 L 6.1816406 15.5 z M 10.332031 15.5 C 10.473423 16.2999 10.661686 17.026747 10.894531 17.623047 C 11.143844 18.261547 11.437777 18.759466 11.726562 19.072266 C 12.015348 19.385066 12.268656 19.5 12.5 19.5 C 12.731345 19.5 12.984652 19.385066 13.273438 19.072266 C 13.562223 18.759466 13.856156 18.261547 14.105469 17.623047 C 14.338314 17.026747 14.526577 16.2999 14.667969 15.5 L 10.332031 15.5 z M 15.693359 15.5 C 15.540867 16.4264 15.317764 17.267628 15.037109 17.986328 C 14.852529 18.459028 14.64087 18.872822 14.402344 19.232422 C 16.359172 18.682222 17.960961 17.3054 18.818359 15.5 L 15.693359 15.5 z "/></svg>