<svg xmlns="http://www.w3.org/2000/svg" width="36" height="36" viewBox="0 0 36 36"><path d="M 18 0 C 8.058879 0 6.9135036e-017 8.058879 0 18 C 0 27.941121 8.058879 36 18 36 C 27.941121 36 36 27.941121 36 18 C 36 8.058879 27.941121 6.9135036e-017 18 0 z M 17.59375 13 L 26.6875 13 A 0.50005005 0.50005005 0 0 1 27.1875 13.59375 L 27.1875 18.09375 C 28.436064 18.87835 29.281256 20.26225 29.28125 21.84375 C 29.28126 24.28505 27.31145 26.28125 24.875 26.28125 C 23.904094 26.28125 23.011817 25.94135 22.28125 25.40625 L 8.5 25.40625 A 0.50004999 0.50004999 0 0 1 8 24.90625 L 8 13.53125 A 0.50004999 0.50004999 0 0 1 8.15625 13.1875 A 0.50004999 0.50004999 0 0 1 8.21875 13.125 A 0.50004999 0.50004999 0 0 1 8.5 13.03125 L 17.59375 13 z M 10.25 14.03125 L 17.59375 18.625 L 24.9375 14.03125 L 10.25 14.03125 z M 26.1875 14.40625 L 17.875 19.625 A 0.50005005 0.50005005 0 0 1 17.34375 19.625 L 9 14.4375 L 9 24.40625 L 21.28125 24.40625 C 20.75982 23.67865 20.437496 22.80445 20.4375 21.84375 C 20.437648 21.23335 20.557022 20.655 20.78125 20.125 C 21.005452 19.5951 21.349545 19.12015 21.75 18.71875 C 21.949855 18.51845 22.140196 18.31555 22.375 18.15625 C 22.609893 17.99705 22.8924 17.8621 23.15625 17.75 C 23.684966 17.5253 24.265878 17.40615 24.875 17.40625 C 24.999232 17.40625 25.098703 17.4145 25.21875 17.4375 C 25.553691 17.4656 25.877748 17.526 26.1875 17.625 L 26.1875 14.40625 z M 24.84375 18.40625 C 23.659738 18.40585 22.645227 18.99375 22.03125 19.90625 C 21.908449 20.08875 21.80515 20.2946 21.71875 20.5 C 21.63234 20.7055 21.5455 20.93235 21.5 21.15625 C 21.45454 21.38015 21.437499 21.60595 21.4375 21.84375 C 21.43786 22.09505 21.47786 22.35315 21.53125 22.59375 C 21.54226 22.64425 21.54931 22.66875 21.5625 22.71875 C 21.615118 22.91405 21.69565 23.09905 21.78125 23.28125 C 21.79898 23.31955 21.79344 23.36925 21.8125 23.40625 C 21.905497 23.58675 22.032295 23.74435 22.15625 23.90625 C 22.18585 23.94455 22.21881 23.99425 22.25 24.03125 C 22.381366 24.18835 22.527719 24.33565 22.6875 24.46875 C 23.280182 24.96305 24.041201 25.28125 24.875 25.28125 C 26.76939 25.28125 28.28126 23.74615 28.28125 21.84375 C 28.281257 20.46005 27.481472 19.26285 26.3125 18.71875 C 26.255375 18.69175 26.18337 18.67925 26.125 18.65625 C 25.96163 18.59105 25.799795 18.54 25.625 18.5 C 25.569938 18.488 25.5244 18.47875 25.46875 18.46875 C 25.275332 18.43475 25.078349 18.40625 24.875 18.40625 L 24.84375 18.40625 z M 26.375 20.3125 A 0.50004999 0.50004999 0 0 1 26.75 21.1875 L 24.75 23.1875 A 0.50004999 0.50004999 0 0 1 23.96875 23.125 L 23 22.1875 A 0.50004999 0.50004999 0 0 1 23.3125 21.3125 A 0.50004999 0.50004999 0 0 1 23.6875 21.46875 L 24.375 22.125 L 26.03125 20.46875 A 0.50004999 0.50004999 0 0 1 26.375 20.3125 z "/></svg>