<svg xmlns="http://www.w3.org/2000/svg" width="32" height="32" viewBox="0 0 32 32"><path fill-rule="evenodd" d="M 16 0 A 16 16 0 0 0 0 16 A 16 16 0 0 0 16 32 A 16 16 0 0 0 32 16 A 16 16 0 0 0 16 0 z M 15.992188 10 C 18.410778 10 20.378899 11.926566 20.474609 14.322266 A 0.50005 0.50005 0 0 1 20.507812 14.507812 C 20.507812 16.158212 19.762424 17.586103 18.888672 18.908203 C 18.014921 20.230403 17.002365 21.472028 16.353516 22.736328 A 0.50005 0.50005 0 0 1 15.458984 22.726562 C 14.841009 21.461263 13.877887 20.220538 13.046875 18.898438 C 12.241331 17.616938 11.557165 16.23605 11.515625 14.65625 A 0.50004997 0.50004997 0 0 1 11.492188 14.5 C 11.492185 12.0207 13.512829 10 15.992188 10 z M 15.992188 11 C 14.082704 11 12.54641 12.516164 12.5 14.414062 A 0.50005 0.50005 0 0 1 12.507812 14.507812 C 12.507813 15.861613 13.100664 17.104188 13.894531 18.367188 C 14.54683 19.404988 15.280811 20.477844 15.917969 21.589844 C 16.589157 20.473144 17.364932 19.398122 18.052734 18.357422 C 18.866431 17.126122 19.472053 15.915222 19.501953 14.607422 A 0.50004997 0.50004997 0 0 1 19.492188 14.5 C 19.492189 12.5611 17.931106 11 15.992188 11 z M 15.992188 13.003906 C 16.814692 13.003906 17.492188 13.681406 17.492188 14.503906 C 17.492187 15.326406 16.814692 16.003906 15.992188 16.003906 C 15.169683 16.003906 14.492188 15.326406 14.492188 14.503906 C 14.492188 13.681406 15.169682 13.003906 15.992188 13.003906 z M 15.992188 14.003906 C 15.710122 14.003906 15.492188 14.221906 15.492188 14.503906 C 15.492187 14.786006 15.710122 15.003906 15.992188 15.003906 C 16.274251 15.003906 16.492188 14.786006 16.492188 14.503906 C 16.492188 14.221906 16.274253 14.003906 15.992188 14.003906 z "/></svg>